<?xml version="1.0" encoding="UTF-8" standalone="no"?>
<!-- Created with Inkscape (http://www.inkscape.org/) -->

<svg
   xmlns:dc="http://purl.org/dc/elements/1.1/"
   xmlns:cc="http://creativecommons.org/ns#"
   xmlns:rdf="http://www.w3.org/1999/02/22-rdf-syntax-ns#"
   xmlns:svg="http://www.w3.org/2000/svg"
   xmlns="http://www.w3.org/2000/svg"
   xmlns:xlink="http://www.w3.org/1999/xlink"
   xmlns:sodipodi="http://sodipodi.sourceforge.net/DTD/sodipodi-0.dtd"
   xmlns:inkscape="http://www.inkscape.org/namespaces/inkscape"
   width="1200"
   height="900"
   id="svg2"
   version="1.1"
   inkscape:version="0.48.3.1 r9886"
   sodipodi:docname="New document 1">
  <defs
     id="defs4">
    <linearGradient
       inkscape:collect="always"
       id="linearGradient3937">
      <stop
         style="stop-color:#cccccc;stop-opacity:1;"
         offset="0"
         id="stop3939" />
      <stop
         style="stop-color:#cccccc;stop-opacity:0;"
         offset="1"
         id="stop3941" />
    </linearGradient>
    <linearGradient
       inkscape:collect="always"
       id="linearGradient3927">
      <stop
         style="stop-color:#ffffff;stop-opacity:1;"
         offset="0"
         id="stop3929" />
      <stop
         style="stop-color:#ffffff;stop-opacity:0;"
         offset="1"
         id="stop3931" />
    </linearGradient>
    <linearGradient
       inkscape:collect="always"
       id="linearGradient3917">
      <stop
         style="stop-color:#e6e6e6;stop-opacity:1;"
         offset="0"
         id="stop3919" />
      <stop
         style="stop-color:#e6e6e6;stop-opacity:0;"
         offset="1"
         id="stop3921" />
    </linearGradient>
    <linearGradient
       inkscape:collect="always"
       id="linearGradient3899">
      <stop
         style="stop-color:#ffffff;stop-opacity:1;"
         offset="0"
         id="stop3901" />
      <stop
         style="stop-color:#ffffff;stop-opacity:0;"
         offset="1"
         id="stop3903" />
    </linearGradient>
    <linearGradient
       inkscape:collect="always"
       id="linearGradient3889">
      <stop
         style="stop-color:#ffffff;stop-opacity:1;"
         offset="0"
         id="stop3891" />
      <stop
         style="stop-color:#ffffff;stop-opacity:0;"
         offset="1"
         id="stop3893" />
    </linearGradient>
    <linearGradient
       inkscape:collect="always"
       id="linearGradient3875">
      <stop
         style="stop-color:#ffffff;stop-opacity:1;"
         offset="0"
         id="stop3877" />
      <stop
         style="stop-color:#ffffff;stop-opacity:0;"
         offset="1"
         id="stop3879" />
    </linearGradient>
    <linearGradient
       inkscape:collect="always"
       id="linearGradient3865">
      <stop
         style="stop-color:#666666;stop-opacity:1;"
         offset="0"
         id="stop3867" />
      <stop
         style="stop-color:#666666;stop-opacity:0;"
         offset="1"
         id="stop3869" />
    </linearGradient>
    <linearGradient
       inkscape:collect="always"
       id="linearGradient3855">
      <stop
         style="stop-color:#e6e6e6;stop-opacity:1;"
         offset="0"
         id="stop3857" />
      <stop
         style="stop-color:#e6e6e6;stop-opacity:0;"
         offset="1"
         id="stop3859" />
    </linearGradient>
    <linearGradient
       inkscape:collect="always"
       id="linearGradient3840">
      <stop
         style="stop-color:#ececec;stop-opacity:1;"
         offset="0"
         id="stop3842" />
      <stop
         style="stop-color:#ececec;stop-opacity:0;"
         offset="1"
         id="stop3844" />
    </linearGradient>
    <linearGradient
       inkscape:collect="always"
       id="linearGradient3830">
      <stop
         style="stop-color:#ffffff;stop-opacity:1;"
         offset="0"
         id="stop3832" />
      <stop
         style="stop-color:#ffffff;stop-opacity:0;"
         offset="1"
         id="stop3834" />
    </linearGradient>
    <linearGradient
       inkscape:collect="always"
       id="linearGradient3814">
      <stop
         style="stop-color:#ececec;stop-opacity:1;"
         offset="0"
         id="stop3816" />
      <stop
         style="stop-color:#ececec;stop-opacity:0;"
         offset="1"
         id="stop3818" />
    </linearGradient>
    <linearGradient
       inkscape:collect="always"
       id="linearGradient3804">
      <stop
         style="stop-color:#ffffff;stop-opacity:1;"
         offset="0"
         id="stop3806" />
      <stop
         style="stop-color:#ffffff;stop-opacity:0;"
         offset="1"
         id="stop3808" />
    </linearGradient>
    <linearGradient
       id="linearGradient3792">
      <stop
         style="stop-color:#e2e2e2;stop-opacity:1;"
         offset="0"
         id="stop3794" />
      <stop
         id="stop3800"
         offset="0.5"
         style="stop-color:#4d4d4d;stop-opacity:1;" />
      <stop
         style="stop-color:#d8d8d8;stop-opacity:1;"
         offset="1"
         id="stop3796" />
    </linearGradient>
    <linearGradient
       inkscape:collect="always"
       xlink:href="#linearGradient3792"
       id="linearGradient3798"
       x1="471.25964"
       y1="343.71838"
       x2="471.19342"
       y2="501.30215"
       gradientUnits="userSpaceOnUse" />
    <linearGradient
       inkscape:collect="always"
       xlink:href="#linearGradient3804"
       id="linearGradient3810"
       x1="489.41891"
       y1="317.64706"
       x2="545.98743"
       y2="295.92877"
       gradientUnits="userSpaceOnUse" />
    <linearGradient
       inkscape:collect="always"
       xlink:href="#linearGradient3814"
       id="linearGradient3820"
       x1="498.51028"
       y1="328.25366"
       x2="543.4621"
       y2="263.09882"
       gradientUnits="userSpaceOnUse" />
    <linearGradient
       inkscape:collect="always"
       xlink:href="#linearGradient3830"
       id="linearGradient3836"
       x1="412.64731"
       y1="478.59549"
       x2="417.19299"
       y2="550.31635"
       gradientUnits="userSpaceOnUse" />
    <linearGradient
       inkscape:collect="always"
       xlink:href="#linearGradient3840"
       id="linearGradient3846"
       x1="540.43164"
       y1="515.1319"
       x2="541.44177"
       y2="476.74609"
       gradientUnits="userSpaceOnUse" />
    <linearGradient
       inkscape:collect="always"
       xlink:href="#linearGradient3855"
       id="linearGradient3861"
       x1="774.78699"
       y1="555.53796"
       x2="828.32507"
       y2="471.69531"
       gradientUnits="userSpaceOnUse" />
    <linearGradient
       inkscape:collect="always"
       xlink:href="#linearGradient3865"
       id="linearGradient3871"
       x1="822.26416"
       y1="740.22504"
       x2="851.55859"
       y2="684.66663"
       gradientUnits="userSpaceOnUse" />
    <linearGradient
       inkscape:collect="always"
       xlink:href="#linearGradient3875"
       id="linearGradient3881"
       x1="58.214287"
       y1="427.67856"
       x2="59.107143"
       y2="436.42856"
       gradientUnits="userSpaceOnUse" />
    <linearGradient
       inkscape:collect="always"
       xlink:href="#linearGradient3889"
       id="linearGradient3895"
       x1="733.33258"
       y1="362.02484"
       x2="743.427"
       y2="336.49182"
       gradientUnits="userSpaceOnUse" />
    <linearGradient
       inkscape:collect="always"
       xlink:href="#linearGradient3899"
       id="linearGradient3905"
       x1="912.65765"
       y1="503.34723"
       x2="945.90997"
       y2="455.25012"
       gradientUnits="userSpaceOnUse" />
    <linearGradient
       inkscape:collect="always"
       xlink:href="#linearGradient3917"
       id="linearGradient3923"
       x1="817.651"
       y1="427.34189"
       x2="833.68335"
       y2="360.2435"
       gradientUnits="userSpaceOnUse" />
    <linearGradient
       inkscape:collect="always"
       xlink:href="#linearGradient3927"
       id="linearGradient3933"
       x1="827.15161"
       y1="334.71045"
       x2="865.1543"
       y2="395.27716"
       gradientUnits="userSpaceOnUse" />
    <linearGradient
       inkscape:collect="always"
       xlink:href="#linearGradient3937"
       id="linearGradient3943"
       x1="411.14926"
       y1="294.09583"
       x2="415.08371"
       y2="409.17828"
       gradientUnits="userSpaceOnUse" />
    <filter
       inkscape:collect="always"
       id="filter4003"
       x="-0.11454545"
       width="1.2290909"
       y="-0.126"
       height="1.252">
      <feGaussianBlur
         inkscape:collect="always"
         stdDeviation="2.0655824"
         id="feGaussianBlur4005" />
    </filter>
    <linearGradient
       inkscape:collect="always"
       xlink:href="#linearGradient3889"
       id="linearGradient4040"
       gradientUnits="userSpaceOnUse"
       x1="733.33258"
       y1="362.02484"
       x2="743.427"
       y2="336.49182" />
    <linearGradient
       inkscape:collect="always"
       xlink:href="#linearGradient3875"
       id="linearGradient4042"
       gradientUnits="userSpaceOnUse"
       x1="58.214287"
       y1="427.67856"
       x2="59.107143"
       y2="436.42856" />
    <linearGradient
       inkscape:collect="always"
       xlink:href="#linearGradient3840"
       id="linearGradient4044"
       gradientUnits="userSpaceOnUse"
       x1="540.43164"
       y1="515.1319"
       x2="541.44177"
       y2="476.74609" />
    <linearGradient
       inkscape:collect="always"
       xlink:href="#linearGradient3814"
       id="linearGradient4046"
       gradientUnits="userSpaceOnUse"
       x1="498.51028"
       y1="328.25366"
       x2="543.4621"
       y2="263.09882" />
    <linearGradient
       inkscape:collect="always"
       xlink:href="#linearGradient3804"
       id="linearGradient4048"
       gradientUnits="userSpaceOnUse"
       x1="489.41891"
       y1="317.64706"
       x2="545.98743"
       y2="295.92877" />
    <linearGradient
       inkscape:collect="always"
       xlink:href="#linearGradient3792"
       id="linearGradient4050"
       gradientUnits="userSpaceOnUse"
       x1="471.25964"
       y1="343.71838"
       x2="471.19342"
       y2="501.30215" />
    <linearGradient
       inkscape:collect="always"
       xlink:href="#linearGradient3855"
       id="linearGradient4052"
       gradientUnits="userSpaceOnUse"
       x1="774.78699"
       y1="555.53796"
       x2="828.32507"
       y2="471.69531" />
    <linearGradient
       inkscape:collect="always"
       xlink:href="#linearGradient3865"
       id="linearGradient4054"
       gradientUnits="userSpaceOnUse"
       x1="822.26416"
       y1="740.22504"
       x2="851.55859"
       y2="684.66663" />
    <linearGradient
       inkscape:collect="always"
       xlink:href="#linearGradient3899"
       id="linearGradient4056"
       gradientUnits="userSpaceOnUse"
       x1="912.65765"
       y1="503.34723"
       x2="945.90997"
       y2="455.25012" />
    <linearGradient
       inkscape:collect="always"
       xlink:href="#linearGradient3917"
       id="linearGradient4058"
       gradientUnits="userSpaceOnUse"
       x1="817.651"
       y1="427.34189"
       x2="833.68335"
       y2="360.2435" />
    <linearGradient
       inkscape:collect="always"
       xlink:href="#linearGradient3927"
       id="linearGradient4060"
       gradientUnits="userSpaceOnUse"
       x1="827.15161"
       y1="334.71045"
       x2="865.1543"
       y2="395.27716" />
    <linearGradient
       inkscape:collect="always"
       xlink:href="#linearGradient3937"
       id="linearGradient4062"
       gradientUnits="userSpaceOnUse"
       x1="411.14926"
       y1="294.09583"
       x2="415.08371"
       y2="409.17828" />
    <linearGradient
       inkscape:collect="always"
       xlink:href="#linearGradient3937"
       id="linearGradient4066"
       gradientUnits="userSpaceOnUse"
       x1="411.14926"
       y1="294.09583"
       x2="415.08371"
       y2="409.17828"
       gradientTransform="translate(69.551777,127.32351)" />
    <linearGradient
       inkscape:collect="always"
       xlink:href="#linearGradient3927"
       id="linearGradient4069"
       gradientUnits="userSpaceOnUse"
       x1="827.15161"
       y1="334.71045"
       x2="865.1543"
       y2="395.27716"
       gradientTransform="translate(69.551777,127.32351)" />
    <linearGradient
       inkscape:collect="always"
       xlink:href="#linearGradient3917"
       id="linearGradient4073"
       gradientUnits="userSpaceOnUse"
       x1="817.651"
       y1="427.34189"
       x2="833.68335"
       y2="360.2435"
       gradientTransform="translate(69.551777,127.32351)" />
    <linearGradient
       inkscape:collect="always"
       xlink:href="#linearGradient3865"
       id="linearGradient4079"
       gradientUnits="userSpaceOnUse"
       x1="822.26416"
       y1="740.22504"
       x2="851.55859"
       y2="684.66663"
       gradientTransform="translate(69.551777,-25.03864)" />
    <linearGradient
       inkscape:collect="always"
       xlink:href="#linearGradient3855"
       id="linearGradient4083"
       gradientUnits="userSpaceOnUse"
       x1="774.78699"
       y1="555.53796"
       x2="828.32507"
       y2="471.69531"
       gradientTransform="translate(69.551777,127.32351)" />
    <linearGradient
       inkscape:collect="always"
       xlink:href="#linearGradient3792"
       id="linearGradient4089"
       gradientUnits="userSpaceOnUse"
       x1="471.25964"
       y1="343.71838"
       x2="471.19342"
       y2="501.30215"
       gradientTransform="translate(69.551777,127.32351)" />
    <filter
       inkscape:collect="always"
       id="filter4234"
       x="-0.048551101"
       width="1.0971022"
       y="-0.13925788"
       height="1.2785158">
      <feGaussianBlur
         inkscape:collect="always"
         stdDeviation="20.785067"
         id="feGaussianBlur4236" />
    </filter>
    <linearGradient
       inkscape:collect="always"
       xlink:href="#linearGradient3889"
       id="linearGradient4238"
       gradientUnits="userSpaceOnUse"
       x1="733.33258"
       y1="362.02484"
       x2="743.427"
       y2="336.49182" />
    <linearGradient
       inkscape:collect="always"
       xlink:href="#linearGradient3875"
       id="linearGradient4240"
       gradientUnits="userSpaceOnUse"
       x1="58.214287"
       y1="427.67856"
       x2="59.107143"
       y2="436.42856" />
    <linearGradient
       inkscape:collect="always"
       xlink:href="#linearGradient3840"
       id="linearGradient4242"
       gradientUnits="userSpaceOnUse"
       x1="540.43164"
       y1="515.1319"
       x2="541.44177"
       y2="476.74609" />
    <linearGradient
       inkscape:collect="always"
       xlink:href="#linearGradient3814"
       id="linearGradient4244"
       gradientUnits="userSpaceOnUse"
       x1="498.51028"
       y1="328.25366"
       x2="543.4621"
       y2="263.09882" />
    <linearGradient
       inkscape:collect="always"
       xlink:href="#linearGradient3804"
       id="linearGradient4246"
       gradientUnits="userSpaceOnUse"
       x1="489.41891"
       y1="317.64706"
       x2="545.98743"
       y2="295.92877" />
    <linearGradient
       inkscape:collect="always"
       xlink:href="#linearGradient3792"
       id="linearGradient4248"
       gradientUnits="userSpaceOnUse"
       gradientTransform="translate(69.551777,127.32351)"
       x1="471.25964"
       y1="343.71838"
       x2="471.19342"
       y2="501.30215" />
    <linearGradient
       inkscape:collect="always"
       xlink:href="#linearGradient3855"
       id="linearGradient4250"
       gradientUnits="userSpaceOnUse"
       gradientTransform="translate(69.551777,127.32351)"
       x1="774.78699"
       y1="555.53796"
       x2="828.32507"
       y2="471.69531" />
    <linearGradient
       inkscape:collect="always"
       xlink:href="#linearGradient3865"
       id="linearGradient4252"
       gradientUnits="userSpaceOnUse"
       gradientTransform="translate(69.551777,-25.03864)"
       x1="822.26416"
       y1="740.22504"
       x2="851.55859"
       y2="684.66663" />
    <linearGradient
       inkscape:collect="always"
       xlink:href="#linearGradient3899"
       id="linearGradient4254"
       gradientUnits="userSpaceOnUse"
       x1="912.65765"
       y1="503.34723"
       x2="945.90997"
       y2="455.25012" />
    <linearGradient
       inkscape:collect="always"
       xlink:href="#linearGradient3917"
       id="linearGradient4256"
       gradientUnits="userSpaceOnUse"
       gradientTransform="translate(69.551777,127.32351)"
       x1="817.651"
       y1="427.34189"
       x2="833.68335"
       y2="360.2435" />
    <linearGradient
       inkscape:collect="always"
       xlink:href="#linearGradient3927"
       id="linearGradient4258"
       gradientUnits="userSpaceOnUse"
       gradientTransform="translate(69.551777,127.32351)"
       x1="827.15161"
       y1="334.71045"
       x2="865.1543"
       y2="395.27716" />
    <linearGradient
       inkscape:collect="always"
       xlink:href="#linearGradient3937"
       id="linearGradient4260"
       gradientUnits="userSpaceOnUse"
       gradientTransform="translate(69.551777,127.32351)"
       x1="411.14926"
       y1="294.09583"
       x2="415.08371"
       y2="409.17828" />
    <linearGradient
       inkscape:collect="always"
       xlink:href="#linearGradient3937"
       id="linearGradient4262"
       gradientUnits="userSpaceOnUse"
       gradientTransform="translate(69.551777,127.32351)"
       x1="411.14926"
       y1="294.09583"
       x2="415.08371"
       y2="409.17828" />
  </defs>
  <sodipodi:namedview
     id="base"
     pagecolor="#ffffff"
     bordercolor="#666666"
     borderopacity="1.0"
     inkscape:pageopacity="0.0"
     inkscape:pageshadow="2"
     inkscape:zoom="0.71888889"
     inkscape:cx="600"
     inkscape:cy="450"
     inkscape:document-units="px"
     inkscape:current-layer="layer1"
     showgrid="false"
     inkscape:window-width="1600"
     inkscape:window-height="820"
     inkscape:window-x="0"
     inkscape:window-y="25"
     inkscape:window-maximized="1" />
  <metadata
     id="metadata7">
    <rdf:RDF>
      <cc:Work
         rdf:about="">
        <dc:format>image/svg+xml</dc:format>
        <dc:type
           rdf:resource="http://purl.org/dc/dcmitype/StillImage" />
        <dc:title></dc:title>
      </cc:Work>
    </rdf:RDF>
  </metadata>
  <g
     inkscape:label="Layer 1"
     inkscape:groupmode="layer"
     id="layer1"
     transform="translate(0,-152.36215)">
    <g
       id="g4264">
      <g
         style="fill:#1a1a1a;filter:url(#filter4234)"
         id="g4142">
        <path
           sodipodi:nodetypes="ccccc"
           inkscape:connector-curvature="0"
           id="path4144"
           d="m 979.55178,528.75208 19.28572,-0.71428 c 10.7588,10.10791 15.1836,21.79933 10.7143,35.71428 l -27.14288,0 z"
           style="fill:#1a1a1a;stroke:none" />
        <g
           style="fill:#1a1a1a"
           transform="translate(69.551777,-25.03864)"
           id="g4146">
          <path
             style="fill:#1a1a1a;stroke:none"
             d="m 757.14286,382.14286 -12.14286,-30 c 33.04695,-10.46245 54.44965,11.0968 80.71429,19.28571 z"
             id="path4148"
             inkscape:connector-curvature="0"
             transform="translate(0,152.36215)"
             sodipodi:nodetypes="cccc" />
          <path
             sodipodi:nodetypes="cccc"
             transform="translate(0,152.36215)"
             inkscape:connector-curvature="0"
             id="path4150"
             d="m 757.14286,382.14286 -12.14286,-30 c 33.04695,-10.46245 54.44965,11.0968 80.71429,19.28571 z"
             style="fill:#1a1a1a;fill-opacity:1;stroke:none" />
        </g>
        <g
           style="fill:#1a1a1a"
           transform="translate(69.551777,-25.03864)"
           id="g4152">
          <path
             style="fill:#1a1a1a;stroke:none"
             d="m 19.642857,436.60714 c -3.710334,2.98077 -1.841572,4.67406 0.535714,6.25 l 86.964289,-8.57143 -1.07143,-7.14285 z"
             id="path4154"
             inkscape:connector-curvature="0"
             transform="translate(0,152.36215)"
             sodipodi:nodetypes="ccccc" />
          <path
             sodipodi:nodetypes="ccccc"
             transform="translate(0,152.36215)"
             inkscape:connector-curvature="0"
             id="path4156"
             d="m 19.642857,436.60714 c -3.710334,2.98077 -1.841572,4.67406 0.535714,6.25 l 86.964289,-8.57143 -1.07143,-7.14285 z"
             style="fill:#1a1a1a;fill-opacity:1;stroke:none" />
        </g>
        <g
           style="fill:#1a1a1a"
           transform="translate(69.551777,-25.03864)"
           id="g4158">
          <path
             style="fill:#1a1a1a;stroke:none"
             d="m 423.57143,474.28571 c 11.79603,6.26182 21.37175,14.25054 24.64286,27.14286 l 0.30441,3.60207 -3.16156,0.3265 c -18.73341,-2.7999 -28.48926,-17.56987 -38.92857,-31.42857 z"
             id="path4160"
             inkscape:connector-curvature="0"
             transform="translate(0,152.36215)"
             sodipodi:nodetypes="cccccc" />
          <path
             style="fill:#1a1a1a;stroke:none"
             d="m 416.78571,469.64286 c 14.72716,9.18983 28.97264,18.70078 32.5,35.35714 l 189.28572,-14.28571 -21.42857,-16.42858 z"
             id="path4162"
             inkscape:connector-curvature="0"
             transform="translate(0,152.36215)"
             sodipodi:nodetypes="ccccc" />
          <path
             sodipodi:nodetypes="ccccc"
             transform="translate(0,152.36215)"
             inkscape:connector-curvature="0"
             id="path4164"
             d="m 416.78571,469.64286 c 14.72716,9.18983 28.97264,18.70078 32.5,35.35714 l 189.28572,-14.28571 -21.42857,-16.42858 z"
             style="fill:#1a1a1a;fill-opacity:1;stroke:none" />
        </g>
        <g
           style="fill:#1a1a1a"
           transform="translate(69.551777,-25.03864)"
           id="g4166">
          <path
             style="fill:#1a1a1a;stroke:none"
             d="M 532.85714,381.42857 520,265 550.71429,267.85714 731.42857,395 z"
             id="path4168"
             inkscape:connector-curvature="0"
             transform="translate(0,152.36215)" />
          <path
             transform="translate(0,152.36215)"
             inkscape:connector-curvature="0"
             id="path4170"
             d="M 532.85714,381.42857 520,265 550.71429,267.85714 731.42857,395 z"
             style="fill:#1a1a1a;fill-opacity:1;stroke:none" />
          <path
             style="fill:#1a1a1a;fill-opacity:1;stroke:none"
             d="m 530.71429,366.42857 47.85714,-2.85714 -39.64286,-96.74107 -18.88392,-1.78572 z"
             id="path4172"
             inkscape:connector-curvature="0"
             transform="translate(0,152.36215)"
             sodipodi:nodetypes="ccccc" />
          <path
             sodipodi:nodetypes="ccccc"
             transform="translate(0,152.36215)"
             inkscape:connector-curvature="0"
             id="path4174"
             d="m 530.71429,366.42857 47.85714,-2.85714 -39.64286,-96.74107 -18.88392,-1.78572 z"
             style="fill:#1a1a1a;fill-opacity:1;stroke:none" />
        </g>
        <path
           sodipodi:nodetypes="cccccccccc"
           inkscape:connector-curvature="0"
           id="path4176"
           d="m 153.39444,553.56197 c 73.0677,-23.26023 146.1354,-41.70003 219.2031,-53.53809 178.7042,-8.06127 389.79169,-0.70193 608.11184,10.10153 4.82161,16.16244 10.59206,32.32488 8.08122,48.48732 l 35.3553,2.0203 c 7.7352,16.89573 5.5249,25.83517 4.0406,35.35534 L 695.84636,619.22188 C 624.4581,610.67556 521.87771,604.88149 385.72953,602.04929 307.00024,599.25397 230.28276,582.37607 153.39444,566.69395 c -2.82169,-3.97423 -3.81336,-8.20989 0,-13.13198 z"
           style="fill:#1a1a1a;fill-opacity:1;stroke:none" />
        <path
           sodipodi:nodetypes="cccssc"
           inkscape:connector-curvature="0"
           id="path4178"
           d="m 380.26607,506.60922 c 10.75174,12.83842 34.95334,18.95191 60.71428,24.28572 70.3525,-5.74324 171.07678,0.93833 204.28572,-20 -43.6498,-30.40247 -115.76227,-54.92379 -188.54441,-41.1579 -1.95468,0.36971 -3.94828,0.43445 -5.90591,0.71225 -25.80515,3.66181 -49.67041,14.43655 -70.54968,36.15993 z"
           style="fill:#1a1a1a;stroke:none" />
        <path
           sodipodi:nodetypes="ccccccc"
           inkscape:connector-curvature="0"
           id="path4180"
           d="m 833.8375,510.18065 c 26.87782,25.48279 93.36269,20.67784 150.71428,22.85715 5.23716,-10.47713 15.56712,-15.86147 26.42852,-20.71429 l 1.4286,-3.57143 c -1.4533,-5.86478 -5.7567,-10.7795 -18.5714,-12.85714 l -85.71429,-8.57143 c -33.93497,6.30861 -53.15054,14.71999 -74.28571,22.85714 z"
           style="fill:#1a1a1a;stroke:none" />
        <path
           sodipodi:nodetypes="cccccc"
           inkscape:connector-curvature="0"
           id="path4182"
           d="m 672.40892,616.96636 c 44.50161,-21.16004 131.36421,-26.45538 220.71429,-28.92856 l 221.42859,151.42857 -46.9643,10.80357 C 972.74909,722.05995 861.69464,668.27589 758.8375,628.0378 z"
           style="fill:#1a1a1a;stroke:none" />
        <path
           style="fill:#1a1a1a;fill-opacity:1;stroke:none"
           d="m 672.40892,616.96636 c 44.50161,-21.16004 131.36421,-26.45538 220.71429,-28.92856 l 221.42859,151.42857 -46.9643,10.80357 C 972.74909,722.05995 861.69464,668.27589 758.8375,628.0378 z"
           id="path4184"
           inkscape:connector-curvature="0"
           sodipodi:nodetypes="cccccc" />
        <path
           sodipodi:nodetypes="ccccc"
           inkscape:connector-curvature="0"
           id="path4186"
           d="m 763.07857,630.58244 45.04464,-17.1875 288.66069,130.17857 -30.8036,6.96428 C 966.80053,717.97201 863.95433,671.6279 763.07857,630.58244 z"
           style="fill:#1a1a1a;stroke:none" />
        <path
           style="fill:#1a1a1a;fill-opacity:1;stroke:none"
           d="m 763.07857,630.58244 45.04464,-17.1875 288.66069,130.17857 -30.8036,6.96428 C 966.80053,717.97201 863.95433,671.6279 763.07857,630.58244 z"
           id="path4188"
           inkscape:connector-curvature="0"
           sodipodi:nodetypes="ccccc" />
        <g
           style="fill:#1a1a1a"
           transform="translate(69.551777,-25.03864)"
           id="g4190">
          <path
             style="fill:#1a1a1a;fill-opacity:1;stroke:none"
             d="m 872.85714,461.42857 c 24.12581,-4.13645 45.20568,-9.9651 85.71429,-5 25.47804,21.58761 54.51337,43.76811 69.28567,63.57143 -6.1441,6.50577 -15.2847,8.01752 -27.1428,5 -49.0247,-20.12287 -100.83696,-39.78114 -127.85716,-63.57143 z"
             id="path4192"
             inkscape:connector-curvature="0"
             transform="translate(0,152.36215)"
             sodipodi:nodetypes="ccccc" />
          <path
             sodipodi:nodetypes="ccccc"
             transform="translate(0,152.36215)"
             inkscape:connector-curvature="0"
             id="path4194"
             d="m 872.85714,461.42857 c 24.12581,-4.13645 45.20568,-9.9651 85.71429,-5 25.47804,21.58761 54.51337,43.76811 69.28567,63.57143 -6.1441,6.50577 -15.2847,8.01752 -27.1428,5 -49.0247,-20.12287 -100.83696,-39.78114 -127.85716,-63.57143 z"
             style="fill:#1a1a1a;fill-opacity:1;stroke:none" />
        </g>
        <path
           style="fill:#1a1a1a;fill-opacity:1;stroke:none"
           d="m 833.8375,510.18065 c 26.87782,25.48279 93.36269,20.67784 150.71428,22.85715 5.23716,-10.47713 15.56712,-15.86147 26.42852,-20.71429 l 1.4286,-3.57143 c -1.4533,-5.86478 -5.7567,-10.7795 -18.5714,-12.85714 l -85.71429,-8.57143 c -33.93497,6.30861 -53.15054,14.71999 -74.28571,22.85714 z"
           id="path4196"
           inkscape:connector-curvature="0"
           sodipodi:nodetypes="ccccccc" />
        <path
           sodipodi:nodetypes="ccccc"
           inkscape:connector-curvature="0"
           id="path4198"
           d="m 910.26607,487.32351 c 20.79385,8.55146 52.61369,10.21168 88.57143,9.28571 l 97.8572,-76.42857 c -3.817,-7.22098 -24.5089,-11.62946 -38.5715,-17.14285 -49.2859,28.09531 -143.18232,72.41262 -147.85713,84.28571 z"
           style="fill:#1a1a1a;stroke:none" />
        <path
           style="fill:#1a1a1a;fill-opacity:1;stroke:none"
           d="m 910.26607,487.32351 c 20.79385,8.55146 52.61369,10.21168 88.57143,9.28571 l 97.8572,-76.42857 c -3.817,-7.22098 -24.5089,-11.62946 -38.5715,-17.14285 -49.2859,28.09531 -143.18232,72.41262 -147.85713,84.28571 z"
           id="path4200"
           inkscape:connector-curvature="0"
           sodipodi:nodetypes="ccccc" />
        <path
           style="fill:#1a1a1a;fill-opacity:1;stroke:none"
           d="m 380.26607,506.60922 c 10.75174,12.83842 34.95334,18.95191 60.71428,24.28572 70.3525,-5.74324 171.07678,0.93833 204.28572,-20 -43.6498,-30.40247 -115.76227,-54.92379 -188.54441,-41.1579 -1.95468,0.36971 -3.94828,0.43445 -5.90591,0.71225 -25.80515,3.66181 -49.67041,14.43655 -70.54968,36.15993 z"
           id="path4202"
           inkscape:connector-curvature="0"
           sodipodi:nodetypes="cccssc" />
        <path
           sodipodi:nodetypes="cccssc"
           inkscape:connector-curvature="0"
           id="path4204"
           d="m 380.26607,506.60922 c 10.75174,12.83842 34.95334,18.95191 60.71428,24.28572 70.3525,-5.74324 171.07678,0.93833 204.28572,-20 -43.6498,-30.40247 -115.76227,-54.92379 -188.54441,-41.1579 -1.95468,0.36971 -3.94828,0.43445 -5.90591,0.71225 -25.80515,3.66181 -49.67041,14.43655 -70.54968,36.15993 z"
           style="fill:#1a1a1a;fill-opacity:1;stroke:none" />
      </g>
      <g
         transform="translate(5.5641422,-27.820711)"
         id="g4109">
        <path
           style="fill:#000000;stroke:none"
           d="m 979.55178,528.75208 19.28572,-0.71428 c 10.7588,10.10791 15.1836,21.79933 10.7143,35.71428 l -27.14288,0 z"
           id="path3004"
           inkscape:connector-curvature="0"
           sodipodi:nodetypes="ccccc" />
        <g
           id="g3907"
           transform="translate(69.551777,-25.03864)">
          <path
             sodipodi:nodetypes="cccc"
             transform="translate(0,152.36215)"
             inkscape:connector-curvature="0"
             id="path3008"
             d="m 757.14286,382.14286 -12.14286,-30 c 33.04695,-10.46245 54.44965,11.0968 80.71429,19.28571 z"
             style="fill:#1a1a1a;stroke:none" />
          <path
             style="fill:url(#linearGradient4238);fill-opacity:1;stroke:none"
             d="m 757.14286,382.14286 -12.14286,-30 c 33.04695,-10.46245 54.44965,11.0968 80.71429,19.28571 z"
             id="path3887"
             inkscape:connector-curvature="0"
             transform="translate(0,152.36215)"
             sodipodi:nodetypes="cccc" />
        </g>
        <g
           id="g3883"
           transform="translate(69.551777,-25.03864)">
          <path
             sodipodi:nodetypes="ccccc"
             transform="translate(0,152.36215)"
             inkscape:connector-curvature="0"
             id="path3022"
             d="m 19.642857,436.60714 c -3.710334,2.98077 -1.841572,4.67406 0.535714,6.25 l 86.964289,-8.57143 -1.07143,-7.14285 z"
             style="fill:#000000;stroke:none" />
          <path
             style="fill:url(#linearGradient4240);fill-opacity:1;stroke:none"
             d="m 19.642857,436.60714 c -3.710334,2.98077 -1.841572,4.67406 0.535714,6.25 l 86.964289,-8.57143 -1.07143,-7.14285 z"
             id="path3873"
             inkscape:connector-curvature="0"
             transform="translate(0,152.36215)"
             sodipodi:nodetypes="ccccc" />
        </g>
        <g
           id="g3848"
           transform="translate(69.551777,-25.03864)">
          <path
             sodipodi:nodetypes="cccccc"
             transform="translate(0,152.36215)"
             inkscape:connector-curvature="0"
             id="path3018"
             d="m 423.57143,474.28571 c 11.79603,6.26182 21.37175,14.25054 24.64286,27.14286 l 0.30441,3.60207 -3.16156,0.3265 c -18.73341,-2.7999 -28.48926,-17.56987 -38.92857,-31.42857 z"
             style="fill:#000000;stroke:none" />
          <path
             sodipodi:nodetypes="ccccc"
             transform="translate(0,152.36215)"
             inkscape:connector-curvature="0"
             id="path3020"
             d="m 416.78571,469.64286 c 14.72716,9.18983 28.97264,18.70078 32.5,35.35714 l 189.28572,-14.28571 -21.42857,-16.42858 z"
             style="fill:#4d4d4d;stroke:none" />
          <path
             style="fill:url(#linearGradient4242);fill-opacity:1;stroke:none"
             d="m 416.78571,469.64286 c 14.72716,9.18983 28.97264,18.70078 32.5,35.35714 l 189.28572,-14.28571 -21.42857,-16.42858 z"
             id="path3838"
             inkscape:connector-curvature="0"
             transform="translate(0,152.36215)"
             sodipodi:nodetypes="ccccc" />
        </g>
        <g
           id="g3822"
           transform="translate(69.551777,-25.03864)">
          <path
             transform="translate(0,152.36215)"
             inkscape:connector-curvature="0"
             id="path3014"
             d="M 532.85714,381.42857 520,265 550.71429,267.85714 731.42857,395 z"
             style="fill:#333333;stroke:none" />
          <path
             style="fill:url(#linearGradient4244);fill-opacity:1;stroke:none"
             d="M 532.85714,381.42857 520,265 550.71429,267.85714 731.42857,395 z"
             id="path3812"
             inkscape:connector-curvature="0"
             transform="translate(0,152.36215)" />
          <path
             sodipodi:nodetypes="ccccc"
             transform="translate(0,152.36215)"
             inkscape:connector-curvature="0"
             id="path3016"
             d="m 530.71429,366.42857 47.85714,-2.85714 -39.64286,-96.74107 -18.88392,-1.78572 z"
             style="fill:#4e4e4e;fill-opacity:1;stroke:none" />
          <path
             style="fill:url(#linearGradient4246);fill-opacity:1;stroke:none"
             d="m 530.71429,366.42857 47.85714,-2.85714 -39.64286,-96.74107 -18.88392,-1.78572 z"
             id="path3802"
             inkscape:connector-curvature="0"
             transform="translate(0,152.36215)"
             sodipodi:nodetypes="ccccc" />
        </g>
        <path
           style="fill:url(#linearGradient4248);fill-opacity:1;stroke:none"
           d="m 153.39444,553.56197 c 73.0677,-23.26023 146.1354,-41.70003 219.2031,-53.53809 178.7042,-8.06127 389.79169,-0.70193 608.11184,10.10153 4.82161,16.16244 10.59206,32.32488 8.08122,48.48732 l 35.3553,2.0203 c 7.7352,16.89573 5.5249,25.83517 4.0406,35.35534 L 695.84636,619.22188 C 624.4581,610.67556 521.87771,604.88149 385.72953,602.04929 307.00024,599.25397 230.28276,582.37607 153.39444,566.69395 c -2.82169,-3.97423 -3.81336,-8.20989 0,-13.13198 z"
           id="path2996"
           inkscape:connector-curvature="0"
           sodipodi:nodetypes="cccccccccc" />
        <path
           style="fill:#000000;stroke:none"
           d="m 380.26607,506.60922 c 10.75174,12.83842 34.95334,18.95191 60.71428,24.28572 70.3525,-5.74324 171.07678,0.93833 204.28572,-20 -43.6498,-30.40247 -115.76227,-54.92379 -188.54441,-41.1579 -1.95468,0.36971 -3.94828,0.43445 -5.90591,0.71225 -25.80515,3.66181 -49.67041,14.43655 -70.54968,36.15993 z"
           id="path2998"
           inkscape:connector-curvature="0"
           sodipodi:nodetypes="cccssc" />
        <path
           style="fill:#1a1a1a;stroke:none"
           d="m 833.8375,510.18065 c 26.87782,25.48279 93.36269,20.67784 150.71428,22.85715 5.23716,-10.47713 15.56712,-15.86147 26.42852,-20.71429 l 1.4286,-3.57143 c -1.4533,-5.86478 -5.7567,-10.7795 -18.5714,-12.85714 l -85.71429,-8.57143 c -33.93497,6.30861 -53.15054,14.71999 -74.28571,22.85714 z"
           id="path3000"
           inkscape:connector-curvature="0"
           sodipodi:nodetypes="ccccccc" />
        <path
           style="fill:#333333;stroke:none"
           d="m 672.40892,616.96636 c 44.50161,-21.16004 131.36421,-26.45538 220.71429,-28.92856 l 221.42859,151.42857 -46.9643,10.80357 C 972.74909,722.05995 861.69464,668.27589 758.8375,628.0378 z"
           id="path3010"
           inkscape:connector-curvature="0"
           sodipodi:nodetypes="cccccc" />
        <path
           sodipodi:nodetypes="cccccc"
           inkscape:connector-curvature="0"
           id="path3853"
           d="m 672.40892,616.96636 c 44.50161,-21.16004 131.36421,-26.45538 220.71429,-28.92856 l 221.42859,151.42857 -46.9643,10.80357 C 972.74909,722.05995 861.69464,668.27589 758.8375,628.0378 z"
           style="fill:url(#linearGradient4250);fill-opacity:1;stroke:none" />
        <path
           style="fill:#b3b3b3;stroke:none"
           d="m 763.07857,630.58244 45.04464,-17.1875 288.66069,130.17857 -30.8036,6.96428 C 966.80053,717.97201 863.95433,671.6279 763.07857,630.58244 z"
           id="path3012"
           inkscape:connector-curvature="0"
           sodipodi:nodetypes="ccccc" />
        <path
           sodipodi:nodetypes="ccccc"
           inkscape:connector-curvature="0"
           id="path3863"
           d="m 763.07857,630.58244 45.04464,-17.1875 288.66069,130.17857 -30.8036,6.96428 C 966.80053,717.97201 863.95433,671.6279 763.07857,630.58244 z"
           style="fill:url(#linearGradient4252);fill-opacity:1;stroke:none" />
        <g
           id="g3911"
           transform="translate(69.551777,-25.03864)">
          <path
             sodipodi:nodetypes="ccccc"
             transform="translate(0,152.36215)"
             inkscape:connector-curvature="0"
             id="path3006"
             d="m 872.85714,461.42857 c 24.12581,-4.13645 45.20568,-9.9651 85.71429,-5 25.47804,21.58761 54.51337,43.76811 69.28567,63.57143 -6.1441,6.50577 -15.2847,8.01752 -27.1428,5 -49.0247,-20.12287 -100.83696,-39.78114 -127.85716,-63.57143 z"
             style="fill:#1a1a1a;fill-opacity:1;stroke:none" />
          <path
             style="fill:url(#linearGradient4254);fill-opacity:1;stroke:none"
             d="m 872.85714,461.42857 c 24.12581,-4.13645 45.20568,-9.9651 85.71429,-5 25.47804,21.58761 54.51337,43.76811 69.28567,63.57143 -6.1441,6.50577 -15.2847,8.01752 -27.1428,5 -49.0247,-20.12287 -100.83696,-39.78114 -127.85716,-63.57143 z"
             id="path3897"
             inkscape:connector-curvature="0"
             transform="translate(0,152.36215)"
             sodipodi:nodetypes="ccccc" />
        </g>
        <path
           sodipodi:nodetypes="ccccccc"
           inkscape:connector-curvature="0"
           id="path3915"
           d="m 833.8375,510.18065 c 26.87782,25.48279 93.36269,20.67784 150.71428,22.85715 5.23716,-10.47713 15.56712,-15.86147 26.42852,-20.71429 l 1.4286,-3.57143 c -1.4533,-5.86478 -5.7567,-10.7795 -18.5714,-12.85714 l -85.71429,-8.57143 c -33.93497,6.30861 -53.15054,14.71999 -74.28571,22.85714 z"
           style="fill:url(#linearGradient4256);fill-opacity:1;stroke:none" />
        <path
           style="fill:#4d4d4d;stroke:none"
           d="m 910.26607,487.32351 c 20.79385,8.55146 52.61369,10.21168 88.57143,9.28571 l 97.8572,-76.42857 c -3.817,-7.22098 -24.5089,-11.62946 -38.5715,-17.14285 -49.2859,28.09531 -143.18232,72.41262 -147.85713,84.28571 z"
           id="path3002"
           inkscape:connector-curvature="0"
           sodipodi:nodetypes="ccccc" />
        <path
           sodipodi:nodetypes="ccccc"
           inkscape:connector-curvature="0"
           id="path3925"
           d="m 910.26607,487.32351 c 20.79385,8.55146 52.61369,10.21168 88.57143,9.28571 l 97.8572,-76.42857 c -3.817,-7.22098 -24.5089,-11.62946 -38.5715,-17.14285 -49.2859,28.09531 -143.18232,72.41262 -147.85713,84.28571 z"
           style="fill:url(#linearGradient4258);fill-opacity:1;stroke:none" />
        <path
           sodipodi:nodetypes="cccssc"
           inkscape:connector-curvature="0"
           id="path3935"
           d="m 380.26607,506.60922 c 10.75174,12.83842 34.95334,18.95191 60.71428,24.28572 70.3525,-5.74324 171.07678,0.93833 204.28572,-20 -43.6498,-30.40247 -115.76227,-54.92379 -188.54441,-41.1579 -1.95468,0.36971 -3.94828,0.43445 -5.90591,0.71225 -25.80515,3.66181 -49.67041,14.43655 -70.54968,36.15993 z"
           style="fill:url(#linearGradient4260);fill-opacity:1;stroke:none" />
        <path
           style="fill:url(#linearGradient4262);fill-opacity:1;stroke:none"
           d="m 380.26607,506.60922 c 10.75174,12.83842 34.95334,18.95191 60.71428,24.28572 70.3525,-5.74324 171.07678,0.93833 204.28572,-20 -43.6498,-30.40247 -115.76227,-54.92379 -188.54441,-41.1579 -1.95468,0.36971 -3.94828,0.43445 -5.90591,0.71225 -25.80515,3.66181 -49.67041,14.43655 -70.54968,36.15993 z"
           id="path4107"
           inkscape:connector-curvature="0"
           sodipodi:nodetypes="cccssc" />
      </g>
    </g>
  </g>
</svg>
